<?xml version="1.0" encoding="UTF-8"?>
<svg id="_レイヤー_1" data-name="レイヤー 1" xmlns="http://www.w3.org/2000/svg" viewBox="0 0 116.24 69.97">
  <defs>
    <style>
      .cls-1 {
        fill: none;
        stroke: #e65a50;
        stroke-linecap: round;
        stroke-miterlimit: 10;
        stroke-width: 3px;
      }

      .cls-2 {
        fill: #fff;
      }

      .cls-3 {
        fill: #e65a50;
      }

      .cls-4 {
        fill: #2e4259;
      }
    </style>
  </defs>
  <path class="cls-4" d="M11.9,55.44c6.79,1.43,12.85,3.11,19.31,5.56.95.36,1.23.46,1.23,1.02,0,1.28-1.74,6.84-3.31,6.84-.39,0-1.07-.31-1.4-.46-8.19-3.47-17.06-5.51-25.98-6.63-.95-.1-1.74-.15-1.74-1.17,0-.87,1.01-3.88,1.35-4.9.34-.97,1.01-1.63,2.19-1.63,1.4,0,6.73,1.07,8.36,1.38ZM15.27,43.15c4.32,1.12,7.3,1.99,11.45,3.47.56.2.95.41.95,1.02,0,1.02-.67,2.81-1.12,3.78l-.34.76c-.56,1.28-.95,2.14-1.91,2.14-.39,0-1.12-.31-1.52-.46-5.67-2.4-11.79-3.98-17.9-5-.95-.15-1.85-.25-1.85-1.17,0-.87.73-3.06,1.07-4.08.39-1.17.84-2.5,2.08-2.5.95,0,7.69,1.68,9.09,2.04ZM6.34,31.72c.17-.25.28-.56.45-.82.62-1.07,1.12-1.99,1.96-1.99,1.68,0,10.16,2.7,12.12,3.42,1.01.31,5.11,1.79,5.78,2.19.34.2.5.51.5.87,0,1.02-1.01,3.16-1.52,4.13-.45.92-1.07,2.3-1.91,2.3-.45,0-1.68-.51-2.19-.71-4.88-2.09-9.99-3.57-15.15-4.95-.56-.15-1.29-.31-1.29-.92,0-.66.9-2.86,1.23-3.52Z"/>
  <path class="cls-4" d="M42.16,33.76c.9,1.61,2.53,5.37,3.75,8.78.19.55.26.99.22,1.22-.19,1.2-4.97,2.56-5.74,2.44-.45-.07-.69-.63-.97-1.48-.34-1.05-1.8-5.3-3.21-8.37-.14-.26-.46-.88-.41-1.2.15-.92,4.73-2.22,5.59-2.08.36.06.58.42.77.69Z"/>
  <path class="cls-4" d="M68.94,33.86c.5.2,2.34.92,2.34,1.48,0,.25-.37.51-.69.77-.78.61-.96,1.43-1.19,2.35-2.71,11.28-7.8,20.46-16.3,26.12-3.03,1.99-6.01,3.21-9.32,4.44-.28.1-.64.25-.96.25-.83,0-1.84-1.58-2.66-2.86-.64-1.02-1.61-2.5-1.61-3.27,0-.66.64-.87,1.15-.97,2.94-.92,5.88-2.04,8.63-3.57,8.49-4.64,13.77-15.87,14.65-26.02.05-.46.09-.82.5-.82.46,0,4.73,1.79,5.46,2.09Z"/>
  <path class="cls-4" d="M53.3,32.58c1.06,2.06,2.09,4.36,3.64,8.62.19.55.22.93.19,1.12-.18,1.15-4.96,2.51-5.78,2.38-.5-.08-.61-.52-.93-1.47-.98-2.85-2.02-5.67-3.31-8.38-.09-.3-.42-.87-.37-1.15.15-.92,4.74-2.27,5.6-2.13.41.07.73.64.95,1Z"/>
  <path class="cls-4" d="M108.31,42.99c0,.36.36.5.68.5h.91c1.59,0,3.17-.14,4.81-.14.86,0,.95.36.95,1.41v2.36c0,1-.09,1.36-.95,1.36-1.59,0-3.22-.09-4.81-.09h-.77c-.32,0-.59.23-.59.54v.5c0,.54.59.54,1,.54,1.31,0,2.67-.09,4.04-.09.91,0,1,.36,1,1.54v2c0,1.18-.09,1.54-1,1.54-1.31,0-2.63-.09-3.99-.09-.91,0-1.04.63-1.04.91,0,.54.45.77.95.77,1.36,0,2.72-.09,4.08-.09.91,0,1,.36,1,1.59v1.95c0,1.18-.09,1.54-1,1.54-1.41,0-2.81-.09-4.17-.09-.36,0-.86.09-.86.54v.41c0,.41.32.73.73.73h1.22c1.59,0,3.22-.09,4.81-.09.86,0,.95.36.95,1.36v2.09c0,1.13-.09,1.5-.95,1.5-1.63,0-3.22-.09-4.81-.09h-10.25c-.36,0-.5.27-.5.59,0,.09.04.18.04.32,0,1.09-.45,1.18-1.86,1.18h-2.36c-1.45,0-2-.09-2-1.13,0-1.91.14-3.81.14-5.71v-8.84c0-.23-.05-.63-.36-.63-.18,0-.27.09-.5.32-.18.18-.36.32-.64.32-.63,0-1.41-.73-1.95-1.31-.18-.18-.5-.41-.64-.41-.32,0-.41.32-.41.59v6.85c0,1.45.09,2.9.09,4.35,0,1.09-.36,1.22-1.54,1.22h-1.72c-1.32,0-1.59-.14-1.59-1.27,0-.5-.18-.91-.73-.91-.5,0-.95.27-.95,1,0,.36.05.86.05,1.32,0,1.04-.32,1.22-1.27,1.22h-2.27c-1,0-1.32-.18-1.32-1.22,0-1.45.09-2.9.09-4.35v-2.36c0-.86-.32-1.45-.95-2.04-.77-.68-2.81-2.68-2.81-3.67,0-.18.04-.32.23-.59,2.09-3.36,4.54-10.57,4.54-14.51,0-.59-.09-1.09-1.18-1.09-.36,0-.73.05-1.09.05-1,0-1.09-.41-1.09-1.59v-2.77c0-1.5.09-1.95,1.04-1.95,1.13,0,2.49.14,3.99.14h4.22c1.5,0,2.86-.14,3.99-.14.95,0,1.04.45,1.04,1.68v2.77c0,1.41-.09,1.86-1.04,1.86-.68,0-1.41-.09-2.09-.09-1.77,0-1.86.59-2.09,2.63-.05.54-.09,1.04-.18,1.54-.14.77-.23,1.27-.23,1.63,0,.27.18.59.95.59.68,0,1.5-.05,2.22-.05,1.27,0,1.72.5,1.72,1.77,0,.86-.04,1.68-.04,2.49,0,.27.04.86.45.86.82,0,5.4-5.35,5.4-6.08,0-.23-.27-.32-.68-.32-.68,0-1.59-.04-2.09-.04h-.41c-.91,0-1.45-.18-1.45-1.23,0-.91.09-1.81.09-2.81v-.73c0-1.13-.09-2.27-.09-2.72,0-1.63,1.18-1.86,2.54-1.86s2.86.09,4.26.09h1.13c.73,0,1.32-.32,1.68-1,.36-.68.54-1.72.73-2.58.05-.27.09-.54.54-.54,1.22,0,4.4.86,5.76,1.13.41.09.77.23.77.59,0,.41-.45.5-.73.54-.5.09-.68.45-.68.91,0,.77.59.95,1.22.95h.59c1.41,0,2.81-.09,4.22-.09,1.32,0,2.58.18,2.58,1.81,0,.54-.09,1.63-.09,2.77v.91c0,1,.09,1.95.09,2.77,0,1.13-.54,1.27-1.95,1.27h-1.45c-1.54,0-1.77-.04-2.04-.77-.04-.14-.18-.32-.36-.32-.27,0-.45.23-.54.5-.09.32-.41,1-.41,1.31ZM83.68,57.36c.45,0,.86-.36.86-.86v-6.21c0-.45-.41-.86-.86-.86h-.09c-.45,0-.86.41-.86.86v6.21c0,.5.36.86.86.86h.09ZM96.61,37.91c-.5,0-.73.36-.73.86v.27c0,.54.04,1.54.32,1.54.18,0,.32-.27.45-.54.36-.68.77-1.5.77-1.77s-.14-.36-.36-.36h-.45ZM100.37,48.38c-.41,0-.73.32-.73.73v.14c0,.36.32.73.73.73h1.77c.36,0,.73-.36.73-.73v-.14c0-.41-.32-.73-.73-.73h-1.77ZM102.14,56.55c.36,0,.73-.32.73-.73v-.23c0-.41-.36-.73-.73-.73h-1.77c-.41,0-.73.32-.73.73v.23c0,.41.27.68.73.73h1.77ZM100.37,61.44c-.41,0-.73.32-.73.73v.23c0,.41.32.73.73.73h1.77c.36,0,.73-.32.73-.73v-.23c0-.41-.32-.68-.73-.73h-1.77ZM104.45,38.95c.32,0,3.22.64,3.76.77.18.05.5.09.73.09.68,0,.68-.36.68-1.18,0-.45-.27-.73-.73-.73h-3.99c-.73,0-1.04.41-1.18.68-.5,1.13-1.45,2.86-2,3.76-.18.32-.27.59-.27.73,0,.27.32.41.54.41.95,0,1.22-1.13,1.9-3.9.09-.41.14-.64.54-.64Z"/>
  <path class="cls-1" d="M37.86,52.44c1.43,3.45,5.52,5.94,10.34,5.94s8.91-2.49,10.34-5.94"/>
  <path class="cls-3" d="M78.95,10.87C77.4.66,64.88-.17,50.12.02s-21.65,2.2-23.7,10.84c-2.63,11.11,10.59,11.98,25.1,11.98s29.01-1.54,27.42-11.98Z"/>
  <path class="cls-2" d="M33.25,11.89c.25-.52.53-.92.93-1.39.74-.86,1.74-1.52,2.86-1.76-.05-.51-.1-1-.17-1.5,0-.04-.01-.06-.01-.08,0-.37.35-.58.69-.58.31,0,.63.17.67.53.07.51.13,1.01.18,1.52,2.01.1,3.21,1.41,3.21,3.25,0,2.06-1.55,3.36-3.72,3.36h-.16c-.34.67-.82,1.25-1.43,1.76-.16.13-.33.18-.48.18-.36,0-.68-.29-.68-.63,0-.18.08-.36.29-.53.41-.33.72-.66.98-1.06-.6-.28-1.08-.72-1.41-1.37-.06-.11-.08-.21-.08-.3,0-.34.31-.59.64-.59.2,0,.41.1.55.34.18.31.49.59.78.76.17-.67.24-1.52.24-2.64,0-.4-.01-.81-.02-1.23-.75.25-1.43.74-2.07,1.46-.53.58-1.05,1.48-1.31,2.22-.12.31-.14.51-.14.64,0,.11.02.23.05.4,0,.45-.35.69-.69.69-.29,0-.57-.16-.66-.51-.25-.95-.4-1.84-.4-3.01,0-.87.12-2.25.37-3.39.08-.37.37-.53.68-.53.34,0,.67.22.67.59,0,.05,0,.1-.01.14-.24,1.24-.39,2.21-.39,2.97,0,.12,0,.16.02.29h.04ZM38.51,11.18c0,1.07-.1,2-.3,2.8,1.25-.11,2.04-.72,2.04-2.09,0-1.12-.6-1.94-1.77-2.07.02.46.04.92.04,1.36Z"/>
  <path class="cls-2" d="M47.48,11.13c.51-.21,1.05-.3,1.53-.3,1.88,0,3.11,1.02,3.11,2.7,0,2.11-1.52,3.46-3.87,3.46-1.65,0-2.7-.84-2.7-1.92,0-.9.6-1.54,1.68-1.54,1.16,0,1.96.77,2.31,1.98.75-.36,1.17-1.06,1.17-1.96,0-.86-.67-1.54-1.83-1.54-1.22,0-2.4.42-3.88,1.57-.17.13-.35.19-.51.19-.37,0-.67-.31-.67-.66,0-.19.08-.4.3-.57,1.4-1.08,2.95-2.69,4.07-4.07-.59.1-1.37.18-1.98.23-.05,0-.36.04-.52.04-.39,0-.6-.33-.6-.65,0-.3.19-.6.59-.63.98-.05,2.25-.2,3.41-.39.06-.01.11-.01.17-.01.49,0,.83.35.83.76,0,.18-.07.37-.22.57-.71.92-1.63,1.96-2.42,2.72l.02.04ZM48.28,15.78c-.21-.77-.57-1.18-1.07-1.18-.25,0-.43.2-.43.47,0,.4.46.71,1.41.71h.1Z"/>
  <path class="cls-2" d="M63.58,13.07c0,1.88-1.41,3.21-4.11,3.59-.04.01-.08.01-.12.01-.36,0-.55-.3-.55-.59,0-.25.16-.51.49-.57,2.29-.4,3.07-1.17,3.07-2.45,0-.77-.55-1.37-1.75-1.37s-2.8.4-4.57,1.18c-.1.05-.19.06-.29.06-.34,0-.57-.28-.57-.57,0-.22.12-.45.41-.57,1.78-.78,3.59-1.21,5.01-1.21,1.76,0,2.97.95,2.97,2.47Z"/>
  <path class="cls-2" d="M68.07,7.24c0-.43.35-.65.7-.65s.7.22.7.65c0,1.35.11,2.56.28,3.53.74-.36,1.55-.69,2.38-.94.07-.02.14-.04.22-.04.37,0,.63.34.63.68,0,.25-.13.49-.45.59-1.07.34-2.28.83-3.17,1.4-1.04.68-1.4,1.34-1.4,1.95,0,.75.49,1.13,2.41,1.13.96,0,1.82-.08,2.5-.22.06-.01.11-.01.16-.01.42,0,.65.33.65.66,0,.3-.17.59-.54.68-.82.17-1.75.23-2.77.23-2.53,0-3.8-.77-3.8-2.4,0-.99.46-1.96,1.96-2.99-.26-1.16-.45-2.59-.45-4.25Z"/>
  <path class="cls-3" d="M55.9,18.57c.66.8,2.67,3.77.12,7.59-.08.12.08.26.23.18,1.45-.7,5.4-2.85,7.09-6.21.03-.05,0-.12-.08-.13-.88-.19-5.89-1.28-7.22-1.58-.11-.02-.2.07-.14.14Z"/>
</svg>