<?xml version="1.0" encoding="UTF-8"?>
<svg id="_レイヤー_1" data-name="レイヤー 1" xmlns="http://www.w3.org/2000/svg" viewBox="0 0 95.24 95.24">
  <defs>
    <style>
      .cls-1 {
        fill: none;
        stroke: #e65a50;
        stroke-linecap: round;
        stroke-miterlimit: 10;
        stroke-width: 3px;
      }

      .cls-2 {
        fill: #fff;
      }

      .cls-3 {
        fill: #e65a50;
      }

      .cls-4 {
        fill: #2e4259;
      }
    </style>
  </defs>
  <rect class="cls-2" width="95.24" height="95.24"/>
  <g>
    <path class="cls-4" d="M34.43,46.04c.9,1.61,2.53,5.37,3.75,8.78.19.55.26.99.22,1.22-.19,1.2-4.97,2.56-5.74,2.44-.45-.07-.69-.63-.97-1.48-.34-1.05-1.8-5.3-3.21-8.37-.14-.26-.46-.88-.41-1.2.15-.92,4.73-2.22,5.59-2.08.36.06.58.42.77.69Z"/>
    <path class="cls-4" d="M61.21,46.14c.5.2,2.34.92,2.34,1.48,0,.25-.37.51-.69.77-.78.61-.96,1.43-1.19,2.35-2.71,11.28-7.8,20.46-16.3,26.12-3.03,1.99-6.01,3.21-9.32,4.44-.28.1-.64.25-.96.25-.83,0-1.84-1.58-2.66-2.86-.64-1.02-1.61-2.5-1.61-3.27,0-.66.64-.87,1.15-.97,2.94-.92,5.88-2.04,8.63-3.57,8.49-4.64,13.77-15.87,14.65-26.02.05-.46.09-.82.5-.82.46,0,4.73,1.79,5.46,2.09h0Z"/>
    <path class="cls-4" d="M45.57,44.86c1.06,2.06,2.09,4.36,3.64,8.62.19.55.22.93.19,1.12-.18,1.15-4.96,2.51-5.78,2.38-.5-.08-.61-.52-.93-1.47-.98-2.85-2.02-5.67-3.31-8.38-.09-.3-.42-.87-.37-1.15.15-.92,4.74-2.27,5.6-2.13.41.07.73.64.95,1h.01Z"/>
    <path class="cls-1" d="M30.13,64.72c1.43,3.45,5.52,5.94,10.34,5.94s8.91-2.49,10.34-5.94"/>
    <path class="cls-3" d="M71.22,23.15c-1.55-10.21-14.07-11.04-28.83-10.85-14.76.19-21.65,2.2-23.7,10.84-2.63,11.11,10.59,11.98,25.1,11.98s29.01-1.54,27.42-11.98h.01Z"/>
    <path class="cls-2" d="M25.52,24.17c.25-.52.53-.92.93-1.39.74-.86,1.74-1.52,2.86-1.76-.05-.51-.1-1-.17-1.5,0-.04,0-.06,0-.08,0-.37.35-.58.69-.58.31,0,.63.17.67.53.07.51.13,1.01.18,1.52,2.01.1,3.21,1.41,3.21,3.25,0,2.06-1.55,3.36-3.72,3.36h-.16c-.34.67-.82,1.25-1.43,1.76-.16.13-.33.18-.48.18-.36,0-.68-.29-.68-.63,0-.18.08-.36.29-.53.41-.33.72-.66.98-1.06-.6-.28-1.08-.72-1.41-1.37-.06-.11-.08-.21-.08-.3,0-.34.31-.59.64-.59.2,0,.41.1.55.34.18.31.49.59.78.76.17-.67.24-1.52.24-2.64,0-.4,0-.81-.02-1.23-.75.25-1.43.74-2.07,1.46-.53.58-1.05,1.48-1.31,2.22-.12.31-.14.51-.14.64,0,.11.02.23.05.4,0,.45-.35.69-.69.69-.29,0-.57-.16-.66-.51-.25-.95-.4-1.84-.4-3.01,0-.87.12-2.25.37-3.39.08-.37.37-.53.68-.53.34,0,.67.22.67.59,0,.05,0,.1,0,.14-.24,1.24-.39,2.21-.39,2.97,0,.12,0,.16.02.29h.04-.02ZM30.78,23.46c0,1.07-.1,2-.3,2.8,1.25-.11,2.04-.72,2.04-2.09,0-1.12-.6-1.94-1.77-2.07.02.46.04.92.04,1.36h-.01Z"/>
    <path class="cls-2" d="M39.75,23.41c.51-.21,1.05-.3,1.53-.3,1.88,0,3.11,1.02,3.11,2.7,0,2.11-1.52,3.46-3.87,3.46-1.65,0-2.7-.84-2.7-1.92,0-.9.6-1.54,1.68-1.54,1.16,0,1.96.77,2.31,1.98.75-.36,1.17-1.06,1.17-1.96s-.67-1.54-1.83-1.54c-1.22,0-2.4.42-3.88,1.57-.17.13-.35.19-.51.19-.37,0-.67-.31-.67-.66,0-.19.08-.4.3-.57,1.4-1.08,2.95-2.69,4.07-4.07-.59.1-1.37.18-1.98.23-.05,0-.36.04-.52.04-.39,0-.6-.33-.6-.65,0-.3.19-.6.59-.63.98-.05,2.25-.2,3.41-.39.06-.01.11-.01.17-.01.49,0,.83.35.83.76,0,.18-.07.37-.22.57-.71.92-1.63,1.96-2.42,2.72l.02.04v-.02ZM40.55,28.06c-.21-.77-.57-1.18-1.07-1.18-.25,0-.43.2-.43.47,0,.4.46.71,1.41.71h.1,0Z"/>
    <path class="cls-2" d="M55.85,25.35c0,1.88-1.41,3.21-4.11,3.59-.04.01-.08.01-.12.01-.36,0-.55-.3-.55-.59,0-.25.16-.51.49-.57,2.29-.4,3.07-1.17,3.07-2.45,0-.77-.55-1.37-1.75-1.37s-2.8.4-4.57,1.18c-.1.05-.19.06-.29.06-.34,0-.57-.28-.57-.57,0-.22.12-.45.41-.57,1.78-.78,3.59-1.21,5.01-1.21,1.76,0,2.97.95,2.97,2.47v.02Z"/>
    <path class="cls-2" d="M60.34,19.52c0-.43.35-.65.7-.65s.7.22.7.65c0,1.35.11,2.56.28,3.53.74-.36,1.55-.69,2.38-.94.07-.02.14-.04.22-.04.37,0,.63.34.63.68,0,.25-.13.49-.45.59-1.07.34-2.28.83-3.17,1.4-1.04.68-1.4,1.34-1.4,1.95,0,.75.49,1.13,2.41,1.13.96,0,1.82-.08,2.5-.22.06-.01.11-.01.16-.01.42,0,.65.33.65.66,0,.3-.17.59-.54.68-.82.17-1.75.23-2.77.23-2.53,0-3.8-.77-3.8-2.4,0-.99.46-1.96,1.96-2.99-.26-1.16-.45-2.59-.45-4.25h-.01Z"/>
    <path class="cls-3" d="M48.17,30.85c.66.8,2.67,3.77.12,7.59-.08.12.08.26.23.18,1.45-.7,5.4-2.85,7.09-6.21.03-.05,0-.12-.08-.13-.88-.19-5.89-1.28-7.22-1.58-.11-.02-.2.07-.14.14h0Z"/>
  </g>
</svg>