<?xml version="1.0" encoding="UTF-8"?>
<svg id="_レイヤー_1" data-name="レイヤー 1" xmlns="http://www.w3.org/2000/svg" viewBox="0 0 137.35 137.35">
  <defs>
    <style>
      .cls-1 {
        fill: none;
        stroke: #e65a50;
        stroke-linecap: round;
        stroke-miterlimit: 10;
        stroke-width: 3px;
      }

      .cls-2 {
        fill: #fcfcfc;
      }

      .cls-3 {
        fill: #2e4259;
      }
    </style>
  </defs>
  <circle class="cls-2" cx="68.68" cy="68.68" r="68.68"/>
  <path class="cls-3" d="M52.92,33.4c2.83,5.07,7.96,16.9,11.8,27.63.6,1.73.82,3.12.69,3.84-.6,3.78-15.64,8.06-18.06,7.68-1.42-.22-2.17-1.98-3.05-4.66-1.07-3.3-5.66-16.68-10.1-26.34-.44-.82-1.45-2.77-1.29-3.78.47-2.9,14.89-6.99,17.59-6.55,1.13.19,1.83,1.32,2.42,2.17Z"/>
  <path class="cls-3" d="M87.98,29.68c3.34,6.48,6.58,13.72,11.46,27.13.6,1.73.69,2.93.6,3.52-.57,3.62-15.61,7.9-18.19,7.49-1.57-.25-1.92-1.64-2.93-4.63-3.08-8.97-6.36-17.84-10.42-26.37-.28-.94-1.32-2.74-1.16-3.62.47-2.9,14.92-7.14,17.62-6.7,1.29.22,2.3,2.01,2.99,3.15l.03.03Z"/>
  <path class="cls-1" d="M39.38,92.18c4.5,10.86,17.37,18.69,32.54,18.69s28.04-7.84,32.54-18.69"/>
</svg>